# xmcd
#
# Track frame offsets:
#	150
#	7338
#	21238
#	36925
#	51121
#	58874
#	67055
#	79792
#	97830
#	109128
#	120162
#	149457
#	173034
#	187472
#
# Disc length: 2809 seconds
#
# Revision: 1
# Processed by: cddbd v1.5.1PL0 Copyright (c) Steve Scherf et al.
# Submitted via: EasyCDDAExtractor 8.0.2.1
#
DISCID=c80af70e
DTITLE=Alice Cooper - Morris Performing Arts Center South Bend 04-10-05 Disc 2
DYEAR=2005
DGENRE=Hard Rock
TTITLE0=Drum Solo
TTITLE1=Gimme
TTITLE2=Feed My Frankenstein
TTITLE3=Welcome To My Nightmare
TTITLE4=The Awakening
TTITLE5=Steven
TTITLE6=Only Women Bleed
TTITLE7=Ballad Of Dwight Fry
TTITLE8=Killer
TTITLE9=I Love The Dead
TTITLE10=School's Out
TTITLE11=Poison
TTITLE12=Wish I Were Born In Beverly Hills
TTITLE13=Under My Wheels
EXTD=
EXTT0=
EXTT1=
EXTT2=
EXTT3=
EXTT4=
EXTT5=
EXTT6=
EXTT7=
EXTT8=
EXTT9=
EXTT10=
EXTT11=
EXTT12=
EXTT13=
PLAYORDER=
